{
  "accessors": [
    {
      "bufferView": 2,
      "componentType": 5126,
      "count": 65532,
      "max": [
        0.9504510164260864,
        0.736611008644104,
        0.24441200494766235
      ],
      "min": [
        -0.9493370056152344,
        -0.7501649856567383,
        -0.24266499280929565
      ],
      "type": "VEC3"
    },
    {
      "bufferView": 2,
      "byteOffset": 786384,
      "componentType": 5126,
      "count": 65532,
      "max": [
        0.9999990463256836,
        0.9999758005142212,
        0.9999995231628418
      ],
      "min": [
        -0.9999961853027344,
        -0.9999971389770508,
        -0.9999991655349731
      ],
      "type": "VEC3"
    },
    {
      "bufferView": 3,
      "componentType": 5126,
      "count": 65532,
      "max": [
        0.9999976754188538,
        0.9999990463256836,
        0.9999983310699463,
        1.0
      ],
      "min": [
        -0.9999990463256836,
        -0.9998419880867004,
        -0.9999957084655762,
        1.0
      ],
      "type": "VEC4"
    },
    {
      "bufferView": 1,
      "componentType": 5126,
      "count": 65532,
      "max": [
        0.8488069772720337,
        0.9988290071487427
      ],
      "min": [
        0.0006500000017695129,
        0.0006500000017695129
      ],
      "type": "VEC2"
    },
    {
      "bufferView": 0,
      "componentType": 5125,
      "count": 302079,
      "type": "SCALAR"
    },
    {
      "bufferView": 2,
      "byteOffset": 1572768,
      "componentType": 5126,
      "count": 23413,
      "max": [
        0.9494069814682007,
        0.7530850172042847,
        0.24441200494766235
      ],
      "min": [
        -0.9502130150794983,
        -0.7489140033721924,
        -0.24266499280929565
      ],
      "type": "VEC3"
    },
    {
      "bufferView": 2,
      "byteOffset": 1853724,
      "componentType": 5126,
      "count": 23413,
      "max": [
        0.9999939203262329,
        0.9998946189880371,
        0.999998927116394
      ],
      "min": [
        -1.0,
        -0.9999772310256958,
        -0.9999980926513672
      ],
      "type": "VEC3"
    },
    {
      "bufferView": 3,
      "byteOffset": 1048512,
      "componentType": 5126,
      "count": 23413,
      "max": [
        0.9999985098838806,
        0.9999833106994629,
        0.9999944567680359,
        1.0
      ],
      "min": [
        -0.9999976754188538,
        -0.9999802708625793,
        -0.9999957084655762,
        -1.0
      ],
      "type": "VEC4"
    },
    {
      "bufferView": 1,
      "byteOffset": 524256,
      "componentType": 5126,
      "count": 23413,
      "max": [
        0.848825991153717,
        0.9993500113487244
      ],
      "min": [
        0.0006500000017695129,
        0.0006500000017695129
      ],
      "type": "VEC2"
    },
    {
      "bufferView": 0,
      "byteOffset": 1208316,
      "componentType": 5125,
      "count": 57915,
      "type": "SCALAR"
    }
  ],
  "asset": {
    "extras": {
      "author": "Chenzoss (https://sketchfab.com/Chenzoss)",
      "license": "CC-BY-4.0 (http://creativecommons.org/licenses/by/4.0/)",
      "source": "https://sketchfab.com/3d-models/mq-9-reaper-uav-drone-89e4291e8ab14ebd85ef68a0f3a25691",
      "title": "MQ-9 Reaper UAV Drone"
    },
    "generator": "Sketchfab-16.72.0",
    "version": "2.0"
  },
  "bufferViews": [
    {
      "buffer": 0,
      "byteLength": 1439976,
      "name": "floatBufferViews",
      "target": 34963
    },
    {
      "buffer": 0,
      "byteLength": 711560,
      "byteOffset": 1439976,
      "byteStride": 8,
      "name": "floatBufferViews",
      "target": 34962
    },
    {
      "buffer": 0,
      "byteLength": 2134680,
      "byteOffset": 2151536,
      "byteStride": 12,
      "name": "floatBufferViews",
      "target": 34962
    },
    {
      "buffer": 0,
      "byteLength": 1423120,
      "byteOffset": 4286216,
      "byteStride": 16,
      "name": "floatBufferViews",
      "target": 34962
    }
  ],
  "buffers": [
    {
      "byteLength": 5709336,
      "uri": "scene.bin"
    }
  ],
  "images": [
    {
      "uri": "textures/material_0_baseColor.png"
    },
    {
      "uri": "textures/material_0_metallicRoughness.png"
    },
    {
      "uri": "textures/material_0_normal.png"
    }
  ],
  "materials": [
    {
      "doubleSided": true,
      "name": "material_0",
      "normalTexture": {
        "index": 2
      },
      "pbrMetallicRoughness": {
        "baseColorTexture": {
          "index": 0
        },
        "metallicRoughnessTexture": {
          "index": 1
        }
      }
    }
  ],
  "meshes": [
    {
      "name": "Object_0",
      "primitives": [
        {
          "attributes": {
            "NORMAL": 1,
            "POSITION": 0,
            "TANGENT": 2,
            "TEXCOORD_0": 3
          },
          "indices": 4,
          "material": 0,
          "mode": 4
        }
      ]
    },
    {
      "name": "Object_1",
      "primitives": [
        {
          "attributes": {
            "NORMAL": 6,
            "POSITION": 5,
            "TANGENT": 7,
            "TEXCOORD_0": 8
          },
          "indices": 9,
          "material": 0,
          "mode": 4
        }
      ]
    }
  ],
  "nodes": [
    {
      "children": [
        1
      ],
      "matrix": [
        1.0,
        0.0,
        0.0,
        0.0,
        0.0,
        2.220446049250313e-16,
        -1.0,
        0.0,
        0.0,
        1.0,
        2.220446049250313e-16,
        0.0,
        0.0,
        0.0,
        0.0,
        1.0
      ],
      "name": "Sketchfab_model"
    },
    {
      "children": [
        2,
        3
      ],
      "name": "base.obj.cleaner.materialmerger.gles"
    },
    {
      "mesh": 0,
      "name": "Object_2"
    },
    {
      "mesh": 1,
      "name": "Object_3"
    }
  ],
  "samplers": [
    {
      "magFilter": 9729,
      "minFilter": 9987,
      "wrapS": 10497,
      "wrapT": 10497
    }
  ],
  "scene": 0,
  "scenes": [
    {
      "name": "Sketchfab_Scene",
      "nodes": [
        0
      ]
    }
  ],
  "textures": [
    {
      "sampler": 0,
      "source": 0
    },
    {
      "sampler": 0,
      "source": 1
    },
    {
      "sampler": 0,
      "source": 2
    }
  ]
}
